<svg width="63" height="62" viewBox="0 0 63 62" fill="none" xmlns="http://www.w3.org/2000/svg">
<path d="M27 20C32.514 20 37 15.514 37 10C37 4.486 32.514 0 27 0C21.486 0 17 4.486 17 10C17 15.514 21.486 20 27 20ZM26 2.069V4H28V2.069C31.612 2.522 34.477 5.388 34.931 9H33V11H34.931C34.478 14.612 31.612 17.477 28 17.931V16H26V17.931C22.388 17.478 19.523 14.612 19.069 11H21V9H19.069C19.523 5.388 22.388 2.523 26 2.069Z" fill="#FF3C00"/>
<path d="M28 10.414V6H26V9.586L24.293 11.293L25.707 12.707L28 10.414Z" fill="#FF3C00"/>
<path d="M63 47C63 45.698 62.161 44.598 61 44.184V27C61 25.346 59.654 24 58 24H52.485C50.408 21.486 47.274 20 44 20C40.726 20 37.592 21.486 35.515 24H30C28.346 24 27 25.346 27 27V44.184C25.839 44.598 25 45.698 25 47V58H27V59C27 60.654 28.346 62 30 62H34C35.654 62 37 60.654 37 59V58H51V59C51 60.654 52.346 62 54 62H58C59.654 62 61 60.654 61 59V58H63V47ZM41 36.88C38.994 36.71 37.638 36.378 36.243 36.029C35.256 35.782 34.248 35.532 33 35.34V33C33 32.449 33.449 32 34 32H40C40.551 32 41 32.449 41 33V36.88ZM35.757 37.97C37.783 38.477 39.877 39 44 39C48.123 39 50.217 38.477 52.243 37.97C54.056 37.517 55.794 37.09 59 37.015V44H29V37.016C32.206 37.091 33.945 37.517 35.757 37.97ZM55 35.341C53.753 35.533 52.745 35.783 51.757 36.03C50.362 36.379 49.005 36.71 47 36.881V33C47 32.449 47.449 32 48 32H54C54.551 32 55 32.449 55 33V35.341ZM30 26H36.5L36.8 25.6C38.491 23.346 41.182 22 44 22C46.818 22 49.509 23.346 51.2 25.6L51.5 26H58C58.551 26 59 26.449 59 27V35.016C58.272 35.033 57.605 35.065 57 35.113V33C57 31.346 55.654 30 54 30H48C46.346 30 45 31.346 45 33V36.984C44.677 36.992 44.355 37 44 37C43.645 37 43.323 36.992 43 36.984V33C43 31.346 41.654 30 40 30H34C32.346 30 31 31.346 31 33V35.113C30.395 35.065 29.728 35.033 29 35.016V27C29 26.449 29.449 26 30 26ZM35 59C35 59.551 34.551 60 34 60H30C29.449 60 29 59.551 29 59V58H35V59ZM59 59C59 59.551 58.551 60 58 60H54C53.449 60 53 59.551 53 59V58H59V59ZM61 56H27V47C27 46.449 27.449 46 28 46H60C60.551 46 61 46.449 61 47V56Z" fill="#FF3C00"/>
<path d="M59 52H29V54H59V52Z" fill="#FF3C00"/>
<path d="M23.387 38L18.72 24H5.27901L0.613007 38H9.00001V56H8.00001C6.34601 56 5.00001 57.346 5.00001 59V62H19V59C19 57.346 17.654 56 16 56H15V38H19V44.184C17.839 44.598 17 45.698 17 47C17 48.654 18.346 50 20 50C21.654 50 23 48.654 23 47C23 45.698 22.161 44.598 21 44.184V38H23.387ZM20 48C19.449 48 19 47.551 19 47C19 46.449 19.449 46 20 46C20.551 46 21 46.449 21 47C21 47.551 20.551 48 20 48ZM6.72101 26H17.28L20.613 36H3.38701L6.72101 26ZM17 59V60H7.00001V59C7.00001 58.449 7.44901 58 8.00001 58H16C16.551 58 17 58.449 17 59ZM13 56H11V38H13V56Z" fill="#FF3C00"/>
</svg>
