<svg width="123" height="97" viewBox="0 0 123 97" fill="none" xmlns="http://www.w3.org/2000/svg">
<path d="M11.9999 73.51C12.1333 50.35 12.2633 27.2233 12.3899 4.12997C12.3954 3.38676 12.6585 2.66846 13.1345 2.09765C13.6105 1.52683 14.2698 1.13887 14.9999 0.999972C23.3999 -0.750028 36.6399 -0.310028 45.6299 3.13997C51.9609 5.42603 57.5104 9.46678 61.6299 14.79C65.8814 9.72159 71.4031 5.87369 77.6299 3.63997C86.1199 0.399972 98.9999 -0.380028 108.23 0.999972C108.992 1.10326 109.691 1.47743 110.2 2.05403C110.708 2.63064 110.992 3.37111 111 4.13997V73.8C110.999 74.2224 110.914 74.6403 110.751 75.0299C110.588 75.4196 110.349 75.7731 110.049 76.0704C109.749 76.3677 109.393 76.6028 109.002 76.7623C108.611 76.9218 108.192 77.0026 107.77 77C107.521 76.9965 107.273 76.9663 107.03 76.91C99.1477 75.8873 91.1365 76.6355 83.5799 79.1C77.9975 81.1808 72.6992 83.9559 67.8099 87.36C74.6852 85.2264 81.8517 84.1805 89.0499 84.26C98.2869 84.407 107.479 85.574 116.46 87.74V14.84H119.67C120.521 14.84 121.338 15.1782 121.94 15.7802C122.542 16.3822 122.88 17.1986 122.88 18.05V91.94C122.88 92.7913 122.542 93.6078 121.94 94.2098C121.338 94.8118 120.521 95.15 119.67 95.15C119.33 95.1472 118.992 95.0898 118.67 94.98C108.996 92.3199 99.0306 90.8655 88.9999 90.65C80.1357 90.5382 71.3508 92.332 63.2399 95.91C62.696 96.2561 62.0647 96.4399 61.4199 96.4399C60.7752 96.4399 60.1439 96.2561 59.5999 95.91C51.4894 92.3311 42.7043 90.5372 33.8399 90.65C23.832 90.8778 13.8903 92.3388 4.23994 95C3.91785 95.1098 3.58022 95.1672 3.23994 95.17C2.81419 95.174 2.3919 95.0932 1.99766 94.9324C1.60342 94.7716 1.2451 94.534 0.943576 94.2334C0.642048 93.9328 0.403332 93.5753 0.241328 93.1815C0.0793246 92.7878 -0.00273031 92.3657 -5.88786e-05 91.94V18.05C-5.88786e-05 17.1986 0.338137 16.3822 0.940128 15.7802C1.54212 15.1782 2.3586 14.84 3.20994 14.84H6.41994V87.74C15.4006 85.574 24.593 84.407 33.8299 84.26C41.5465 84.1686 49.2236 85.3755 56.5399 87.83C51.9184 84.0918 46.6516 81.2314 40.9999 79.39C33.9999 77.09 23.3199 76.32 15.5099 76.99C15.0865 77.0312 14.6591 76.9878 14.2526 76.8624C13.8461 76.7369 13.4685 76.532 13.1419 76.2593C12.8153 75.9867 12.5462 75.6519 12.3501 75.2743C12.1541 74.8967 12.035 74.4839 11.9999 74.06C11.9898 73.8768 11.9898 73.6932 11.9999 73.51ZM73.6399 64.4C73.3877 64.5879 73.0997 64.722 72.7936 64.7942C72.4875 64.8663 72.1698 64.8749 71.8602 64.8195C71.5507 64.764 71.2558 64.6456 70.9937 64.4717C70.7317 64.2977 70.5082 64.0719 70.3369 63.8081C70.1656 63.5443 70.0503 63.2483 69.9979 62.9381C69.9456 62.628 69.9575 62.3105 70.0327 62.0051C70.108 61.6998 70.2451 61.4131 70.4355 61.1628C70.626 60.9125 70.8657 60.7039 71.1399 60.55C74.8296 58.2593 78.7945 56.4448 82.9399 55.15C87.1463 53.7262 91.5129 52.8293 95.9399 52.48C96.2407 52.4636 96.5417 52.5065 96.8258 52.6065C97.1099 52.7064 97.3716 52.8613 97.5958 53.0623C97.8201 53.2633 98.0025 53.5066 98.1328 53.7781C98.263 54.0497 98.3385 54.3442 98.3549 54.645C98.3714 54.9457 98.3284 55.2467 98.2285 55.5308C98.1285 55.815 97.9736 56.0766 97.7726 56.3009C97.5716 56.5251 97.3283 56.7076 97.0568 56.8378C96.7852 56.9681 96.4907 57.0436 96.1899 57.06C92.1743 57.3962 88.215 58.2224 84.3999 59.52C80.6213 60.6848 77.0057 62.3246 73.6399 64.4ZM73.8399 46.64C73.3267 46.9662 72.705 47.0752 72.1114 46.943C71.5179 46.8108 71.0012 46.4482 70.6749 45.935C70.3487 45.4218 70.2397 44.8 70.3719 44.2065C70.5042 43.6129 70.8667 43.0962 71.3799 42.77C75.0619 40.53 79.0047 38.75 83.1199 37.47C87.2587 36.0845 91.5499 35.2048 95.8999 34.85C96.495 34.8398 97.0709 35.0606 97.5065 35.4662C97.9421 35.8717 98.2036 36.4303 98.2359 37.0245C98.2683 37.6188 98.069 38.2025 97.68 38.6529C97.291 39.1034 96.7426 39.3855 96.1499 39.44C92.1907 39.7685 88.2857 40.5743 84.5199 41.84C80.7774 42.9981 77.1907 44.6101 73.8399 46.64ZM73.8999 28.94C73.6445 29.1015 73.3598 29.2111 73.062 29.2626C72.7642 29.3141 72.4592 29.3064 72.1644 29.24C71.8695 29.1736 71.5907 29.0498 71.3437 28.8757C71.0967 28.7015 70.8865 28.4804 70.7249 28.225C70.5634 27.9696 70.4538 27.6848 70.4023 27.387C70.3508 27.0892 70.3585 26.7842 70.4249 26.4894C70.4913 26.1946 70.6151 25.9157 70.7892 25.6687C70.9634 25.4218 71.1845 25.2115 71.4399 25.05C75.1163 22.8204 79.0524 21.0505 83.1599 19.78C87.2856 18.4006 91.5637 17.5275 95.8999 17.18C96.2007 17.1636 96.5017 17.2065 96.7858 17.3065C97.0699 17.4064 97.3316 17.5613 97.5558 17.7623C97.7801 17.9633 97.9625 18.2066 98.0928 18.4781C98.223 18.7497 98.2985 19.0442 98.3149 19.345C98.3314 19.6457 98.2884 19.9467 98.1885 20.2308C98.0885 20.5149 97.9336 20.7766 97.7326 21.0009C97.5316 21.2251 97.2883 21.4076 97.0168 21.5378C96.7452 21.6681 96.4507 21.7436 96.1499 21.76C92.2047 22.0889 88.3134 22.8913 84.5599 24.15C80.8244 25.3056 77.2445 26.9143 73.8999 28.94ZM51.7399 60.55C52.0142 60.7039 52.2539 60.9125 52.4444 61.1628C52.6348 61.4131 52.7719 61.6998 52.8472 62.0051C52.9224 62.3105 52.9343 62.628 52.8819 62.9381C52.8296 63.2483 52.7143 63.5443 52.543 63.8081C52.3717 64.0719 52.1482 64.2977 51.8861 64.4717C51.6241 64.6456 51.3292 64.764 51.0197 64.8195C50.7101 64.8749 50.3924 64.8663 50.0863 64.7942C49.7802 64.722 49.4922 64.5879 49.2399 64.4C45.8867 62.3277 42.2848 60.688 38.5199 59.52C34.7049 58.2224 30.7455 57.3962 26.7299 57.06C26.4292 57.0422 26.1349 56.9655 25.8639 56.834C25.5928 56.7025 25.3503 56.519 25.1502 56.2938C24.9501 56.0686 24.7963 55.8062 24.6976 55.5216C24.5989 55.237 24.5572 54.9357 24.5749 54.635C24.5927 54.3342 24.6695 54.04 24.8009 53.7689C24.9324 53.4979 25.1159 53.2554 25.3411 53.0552C25.5663 52.8551 25.8287 52.7013 26.1133 52.6026C26.3979 52.5039 26.6992 52.4622 26.9999 52.48C31.427 52.8293 35.7936 53.7262 39.9999 55.15C44.1454 56.4448 48.1102 58.2593 51.7999 60.55H51.7399ZM51.4999 42.77C52.0131 43.1015 52.3736 43.6233 52.5021 44.2206C52.6305 44.8179 52.5165 45.4418 52.1849 45.955C51.8534 46.4682 51.3316 46.8286 50.7343 46.9571C50.137 47.0856 49.5131 46.9715 48.9999 46.64C45.6492 44.6101 42.0625 42.9981 38.3199 41.84C34.5541 40.5743 30.6491 39.7685 26.6899 39.44C26.0813 39.3989 25.5139 39.1176 25.1125 38.6582C24.7112 38.1987 24.5088 37.5986 24.5499 36.99C24.591 36.3813 24.8723 35.8139 25.3317 35.4126C25.7912 35.0112 26.3913 34.8089 26.9999 34.85C31.35 35.2048 35.6412 36.0845 39.7799 37.47C43.8952 38.75 47.838 40.53 51.5199 42.77H51.4999ZM51.4399 25.05C51.7149 25.2005 51.9563 25.4057 52.1491 25.653C52.3419 25.9002 52.4821 26.1842 52.5611 26.4876C52.6402 26.791 52.6563 27.1074 52.6086 27.4172C52.561 27.7271 52.4504 28.0239 52.2838 28.2895C52.1172 28.5551 51.8981 28.7839 51.6399 28.9617C51.3817 29.1395 51.0898 29.2626 50.7823 29.3236C50.4747 29.3845 50.158 29.3819 49.8515 29.3159C49.545 29.2499 49.2552 29.122 48.9999 28.94C45.6554 26.9143 42.0754 25.3056 38.3399 24.15C34.5865 22.8913 30.6952 22.0889 26.7499 21.76C26.4492 21.7436 26.1547 21.6681 25.8831 21.5378C25.6116 21.4076 25.3683 21.2251 25.1673 21.0009C24.9662 20.7766 24.8113 20.5149 24.7114 20.2308C24.6115 19.9467 24.5685 19.6457 24.5849 19.345C24.6014 19.0442 24.6768 18.7497 24.8071 18.4781C24.9373 18.2066 25.1198 17.9633 25.3441 17.7623C25.5683 17.5613 25.83 17.4064 26.1141 17.3065C26.3982 17.2065 26.6992 17.1636 26.9999 17.18C31.3362 17.5275 35.6142 18.4006 39.7399 19.78C43.8475 21.0505 47.7836 22.8204 51.4599 25.05H51.4399ZM104.56 6.99997C97.1399 6.29997 86.4999 7.11997 79.8299 9.64997C73.6294 11.8236 68.3139 15.9727 64.6999 21.46V81.72C69.8968 78.1581 75.5123 75.2495 81.4199 73.06C88.8867 70.6683 96.7351 69.6949 104.56 70.19V6.99997ZM58.2799 81.1V21.37C54.9199 15.44 49.4899 11.48 43.3499 9.12997C36.3499 6.45997 25.5999 5.85997 18.7899 6.82997L18.4299 70.39C25.8599 70.12 36.1199 71.07 42.9499 73.3C48.4378 75.079 53.6112 77.7112 58.2799 81.1Z" fill="#FF3C00"/>
</svg>
