<svg width="800" height="800" viewBox="0 0 800 800" fill="none" xmlns="http://www.w3.org/2000/svg">
<path d="M189.732 350.83C168.368 350.83 168.368 384.019 189.732 384.019C274.823 384.019 359.899 384.019 444.983 384.019C466.386 384.019 466.386 350.83 444.983 350.83C359.899 350.83 274.823 350.83 189.732 350.83Z" fill="white"/>
<path d="M444.983 429.302C359.899 429.302 274.823 429.302 189.732 429.302C168.368 429.302 168.368 462.454 189.732 462.454C274.823 462.454 359.899 462.454 444.983 462.454C466.389 462.454 466.389 429.302 444.983 429.302Z" fill="white"/>
<path d="M444.983 501.985C359.899 501.985 274.823 501.985 189.732 501.985C168.368 501.985 168.368 535.134 189.732 535.134C274.823 535.134 359.899 535.134 444.983 535.134C466.389 535.131 466.389 501.985 444.983 501.985Z" fill="white"/>
<path d="M444.983 580.442C359.899 580.442 274.823 580.442 189.732 580.442C168.368 580.442 168.368 613.579 189.732 613.579C274.823 613.579 359.899 613.579 444.983 613.579C466.389 613.575 466.389 580.442 444.983 580.442Z" fill="white"/>
<path d="M440.108 654.484C354.992 654.484 269.885 654.484 184.81 654.484C163.46 654.484 163.46 687.633 184.81 687.633C269.885 687.633 354.992 687.633 440.108 687.633C461.447 687.63 461.447 654.484 440.108 654.484Z" fill="white"/>
<path d="M79.0678 181.09V800H555.673V266.958L467.115 181.09H79.0678ZM514.48 758.795H120.291V222.298H445.9V287.674H514.449V758.795H514.48Z" fill="white"/>
<path d="M159.632 86.2538V157.889H200.856V127.446H526.48V192.822H595.045V663.952H576.935V705.157H636.253V172.106L547.695 86.2538H159.632Z" fill="white"/>
<path d="M632.359 0H244.302V71.6511H285.51V41.2081H611.144V106.584H679.708V577.705H661.614V618.91H720.932V85.8673L632.359 0Z" fill="white"/>
</svg>
