<svg width="54" height="64" viewBox="0 0 54 64" fill="none" xmlns="http://www.w3.org/2000/svg">
<path d="M53.44 64H0.560007C0.290007 64 0.0700073 63.78 0.0700073 63.51C0.0700073 63.24 0.290007 63.02 0.560007 63.02H53.45C53.72 63.02 53.94 63.24 53.94 63.51C53.94 63.78 53.72 64 53.44 64Z" fill="#FF3C00"/>
<path d="M13.04 45.24H3.28999C3.11999 45.24 2.95999 45.15 2.86999 45L1.46999 42.69C1.41999 42.61 1.39999 42.53 1.39999 42.44V38.85C1.39999 38.58 1.61999 38.36 1.88999 38.36C2.15999 38.36 2.37999 38.58 2.37999 38.85V42.31L3.56999 44.27H12.76L13.95 42.31V38.85C13.95 38.58 14.17 38.36 14.44 38.36C14.71 38.36 14.93 38.58 14.93 38.85V42.44C14.93 42.53 14.91 42.62 14.86 42.69L13.46 45C13.37 45.15 13.21 45.24 13.04 45.24Z" fill="#FF3C00"/>
<path d="M11.9 29.2C11.88 29.2 11.85 29.2 11.83 29.2C9.39999 28.86 6.93999 28.86 4.49999 29.2C4.30999 29.23 4.11999 29.14 4.01999 28.98L2.87999 27.21C2.82999 27.13 2.79999 27.04 2.79999 26.94V24.99C2.79999 24.76 2.95999 24.56 3.18999 24.51C6.48999 23.79 9.83999 23.79 13.15 24.51C13.38 24.56 13.54 24.76 13.54 24.99V26.94C13.54 27.03 13.51 27.13 13.46 27.21L12.32 28.98C12.22 29.12 12.06 29.2 11.9 29.2ZM3.77999 26.8L4.66999 28.18C6.98999 27.89 9.32999 27.89 11.64 28.18L12.53 26.8V25.4C9.61999 24.82 6.67999 24.82 3.76999 25.4V26.8H3.77999Z" fill="#FF3C00"/>
<path d="M13.04 27.4399C13.01 27.4399 12.97 27.4399 12.94 27.4299C9.77999 26.7399 6.56999 26.7399 3.39999 27.4299C3.13999 27.4899 2.86999 27.3199 2.80999 27.0499C2.74999 26.7799 2.91999 26.5199 3.18999 26.4599C6.48999 25.7399 9.83999 25.7399 13.15 26.4599C13.42 26.5199 13.58 26.7799 13.53 27.0499C13.47 27.2799 13.27 27.4399 13.04 27.4399Z" fill="#FF3C00"/>
<path d="M14.44 39.88H1.88999C1.61999 39.88 1.39999 39.66 1.39999 39.39C1.39999 39.12 1.61999 38.9 1.88999 38.9H14.44C14.71 38.9 14.93 39.12 14.93 39.39C14.93 39.66 14.71 39.88 14.44 39.88Z" fill="#FF3C00"/>
<path d="M14.44 42.9199H1.88999C1.61999 42.9199 1.39999 42.6999 1.39999 42.4299C1.39999 42.1599 1.61999 41.9399 1.88999 41.9399H14.44C14.71 41.9399 14.93 42.1599 14.93 42.4299C14.93 42.6999 14.71 42.9199 14.44 42.9199Z" fill="#FF3C00"/>
<path d="M3.28999 64C3.01999 64 2.79999 63.78 2.79999 63.51V44.75C2.79999 44.48 3.01999 44.26 3.28999 44.26C3.55999 44.26 3.77999 44.48 3.77999 44.75V63.51C3.77999 63.78 3.55999 64 3.28999 64Z" fill="#FF3C00"/>
<path d="M13.04 64C12.77 64 12.55 63.78 12.55 63.51V44.75C12.55 44.48 12.77 44.26 13.04 44.26C13.31 44.26 13.53 44.48 13.53 44.75V63.51C13.53 63.78 13.31 64 13.04 64Z" fill="#FF3C00"/>
<path d="M11.41 17.66C11.39 17.66 11.36 17.66 11.34 17.66C9.23 17.37 7.1 17.37 4.99 17.66C4.8 17.69 4.61 17.6 4.51 17.44L3.52 15.9C3.47 15.82 3.44 15.73 3.44 15.63V13.94C3.44 13.71 3.6 13.51 3.83 13.46C6.71 12.83 9.63 12.83 12.5 13.46C12.73 13.51 12.89 13.71 12.89 13.94V15.63C12.89 15.72 12.86 15.82 12.81 15.9L11.82 17.43C11.73 17.58 11.57 17.66 11.41 17.66ZM4.43 15.49L5.17 16.64C7.16 16.39 9.17 16.39 11.16 16.64L11.9 15.49V14.34C9.42 13.85 6.9 13.85 4.42 14.34V15.49H4.43Z" fill="#FF3C00"/>
<path d="M12.4 16.13C12.37 16.13 12.33 16.13 12.3 16.12C9.56001 15.52 6.78001 15.52 4.05001 16.12C3.79001 16.18 3.52001 16.01 3.46001 15.74C3.40001 15.47 3.57001 15.21 3.84001 15.15C6.72001 14.52 9.64001 14.52 12.51 15.15C12.78 15.21 12.94 15.47 12.89 15.74C12.83 15.97 12.62 16.13 12.4 16.13Z" fill="#FF3C00"/>
<path d="M10.6 14.14C10.33 14.14 10.11 13.92 10.11 13.65V9.53003C10.11 9.01003 9.90999 8.52003 9.53999 8.14003C9.16999 7.78003 8.67999 7.58003 8.16999 7.58003C7.08999 7.58003 6.21999 8.46003 6.21999 9.53003V13.64C6.21999 13.91 5.99999 14.13 5.72999 14.13C5.45999 14.13 5.23999 13.91 5.23999 13.64V9.53003C5.23999 7.91003 6.55999 6.59003 8.17999 6.59003C8.94999 6.59003 9.68999 6.89003 10.25 7.44003C10.81 8.01003 11.11 8.75003 11.11 9.53003V13.64C11.1 13.92 10.88 14.14 10.6 14.14Z" fill="#FF3C00"/>
<path d="M9.34 7.87998C9.07 7.87998 8.85 7.65998 8.85 7.38998V6.13998C8.85 5.76998 8.55 5.45998 8.17 5.45998C7.79 5.45998 7.48 5.75998 7.48 6.13998V7.38998C7.48 7.65998 7.26 7.87998 6.99 7.87998C6.72 7.87998 6.5 7.65998 6.5 7.38998V6.13998C6.5 5.21998 7.25 4.47998 8.17 4.47998C9.09 4.47998 9.83 5.22998 9.83 6.13998V7.38998C9.83 7.65998 9.61 7.87998 9.34 7.87998Z" fill="#FF3C00"/>
<path d="M8.16999 5.46C7.89999 5.46 7.67999 5.24 7.67999 4.97V0.49C7.67999 0.22 7.89999 0 8.16999 0C8.43999 0 8.65999 0.22 8.65999 0.49V4.97C8.65999 5.24 8.43999 5.46 8.16999 5.46Z" fill="#FF3C00"/>
<path d="M11.9 39.88C11.63 39.88 11.41 39.66 11.41 39.39V28.71C11.41 28.44 11.63 28.22 11.9 28.22C12.17 28.22 12.39 28.44 12.39 28.71V39.39C12.39 39.66 12.17 39.88 11.9 39.88Z" fill="#FF3C00"/>
<path d="M4.43 39.88C4.16 39.88 3.94 39.66 3.94 39.39V28.71C3.94 28.44 4.16 28.22 4.43 28.22C4.7 28.22 4.92 28.44 4.92 28.71V39.39C4.93 39.66 4.71 39.88 4.43 39.88Z" fill="#FF3C00"/>
<path d="M11.41 25.17C11.14 25.17 10.92 24.95 10.92 24.68V17.17C10.92 16.9 11.14 16.68 11.41 16.68C11.68 16.68 11.9 16.9 11.9 17.17V24.68C11.9 24.95 11.68 25.17 11.41 25.17Z" fill="#FF3C00"/>
<path d="M4.93 25.19C4.66 25.19 4.44 24.97 4.44 24.7V17.17C4.44 16.9 4.66 16.68 4.93 16.68C5.2 16.68 5.42 16.9 5.42 17.17V24.7C5.42 24.97 5.2 25.19 4.93 25.19Z" fill="#FF3C00"/>
<path d="M48.09 53.77H15.61C15.34 53.77 15.12 53.55 15.12 53.28C15.12 53.01 15.34 52.79 15.61 52.79H48.09C48.36 52.79 48.58 53.01 48.58 53.28C48.58 53.55 48.36 53.77 48.09 53.77Z" fill="#FF3C00"/>
<path d="M49.11 58.81H14.59C14.32 58.81 14.1 58.59 14.1 58.32C14.1 58.05 14.32 57.83 14.59 57.83H49.11C49.38 57.83 49.6 58.05 49.6 58.32C49.6 58.59 49.38 58.81 49.11 58.81Z" fill="#FF3C00"/>
<path d="M50.66 63.9999C50.39 63.9999 50.17 63.7799 50.17 63.5099V59.5399L48.86 58.7399C48.71 58.6499 48.62 58.4899 48.62 58.3199V54.5299L47.74 53.6299C47.65 53.5399 47.6 53.4199 47.6 53.2899L47.57 50.0399C47.6 39.8299 38.62 34.9299 34.79 32.8299C33.81 32.2899 33.32 32.0199 33.1 31.7699C32.92 31.5699 32.77 31.3099 32.61 31.0499C32.41 30.7099 32.19 30.3199 31.85 29.9799C31.51 30.3199 31.29 30.6999 31.09 31.0499C30.94 31.3199 30.79 31.5699 30.6 31.7699C30.37 32.0199 29.89 32.2899 28.91 32.8299C25.08 34.9199 16.11 39.8299 16.13 50.0299L16.1 53.2799C16.1 53.4099 16.05 53.5299 15.96 53.6199L15.08 54.5199V58.3099C15.08 58.4799 14.99 58.6399 14.85 58.7299L13.3 59.6999C13.07 59.8399 12.77 59.7799 12.62 59.5399C12.48 59.3099 12.55 59.0099 12.78 58.8599L14.1 58.0399V54.3199C14.1 54.1899 14.15 54.0699 14.24 53.9799L15.12 53.0699L15.15 50.0199C15.12 39.2399 24.45 34.1299 28.44 31.9599C29.08 31.6099 29.75 31.2399 29.88 31.0999C29.99 30.9699 30.11 30.7799 30.24 30.5399C30.52 30.0499 30.88 29.4399 31.55 28.9199C31.73 28.7799 31.97 28.7799 32.15 28.9199C32.82 29.4399 33.18 30.0499 33.46 30.5399C33.59 30.7699 33.71 30.9699 33.82 31.0899C33.95 31.2299 34.61 31.5899 35.26 31.9499C39.24 34.1299 48.58 39.2299 48.55 50.0199L48.58 53.0599L49.46 53.9699C49.55 54.0599 49.6 54.1899 49.6 54.3099V58.0199L50.91 58.8199C51.06 58.9099 51.15 59.0699 51.15 59.2399V63.4899C51.15 63.7799 50.93 63.9999 50.66 63.9999Z" fill="#FF3C00"/>
<path d="M31.9 32.28C31.28 32.28 30.65 32.19 30.02 32.01C29.76 31.94 29.61 31.66 29.68 31.4C29.75 31.14 30.03 30.99 30.29 31.06C31.36 31.37 32.42 31.37 33.44 31.07C33.7 30.99 33.97 31.14 34.05 31.4C34.13 31.66 33.98 31.93 33.72 32.01C33.11 32.19 32.51 32.28 31.9 32.28Z" fill="#FF3C00"/>
<path d="M31.85 29.81C31.58 29.81 31.36 29.59 31.36 29.32V24.72C31.36 24.45 31.58 24.23 31.85 24.23C32.12 24.23 32.34 24.45 32.34 24.72V29.32C32.34 29.59 32.12 29.81 31.85 29.81Z" fill="#FF3C00"/>
<path d="M13.04 48.7C12.95 48.7 12.87 48.68 12.79 48.63L11.42 47.81L10.05 48.63C9.89 48.72 9.7 48.72 9.54 48.63L8.17 47.81L6.8 48.63C6.64 48.72 6.45 48.72 6.29 48.63L4.92001 47.8L3.54 48.62C3.31 48.76 3.00001 48.68 2.86001 48.45C2.72001 48.22 2.8 47.91 3.03 47.78L4.66 46.8C4.82 46.71 5.01001 46.71 5.17001 46.8L6.54 47.62L7.91 46.8C8.07 46.71 8.26 46.71 8.42 46.8L9.79 47.62L11.16 46.8C11.32 46.71 11.51 46.71 11.67 46.8L13.29 47.78C13.52 47.92 13.6 48.22 13.46 48.46C13.37 48.61 13.2 48.7 13.04 48.7Z" fill="#FF3C00"/>
<path d="M13.04 51.7001C12.95 51.7001 12.87 51.6801 12.79 51.6301L11.42 50.8101L10.05 51.6301C9.89 51.7201 9.7 51.7201 9.54 51.6301L8.17 50.8101L6.8 51.6301C6.64 51.7201 6.45 51.7201 6.29 51.6301L4.92001 50.8101L3.54 51.6301C3.31 51.7701 3.00001 51.6901 2.86001 51.4601C2.72001 51.2301 2.8 50.9201 3.03 50.7801L4.66 49.8101C4.82 49.7201 5.01001 49.7201 5.17001 49.8101L6.54 50.6301L7.91 49.8101C8.07 49.7201 8.26 49.7201 8.42 49.8101L9.79 50.6301L11.16 49.8101C11.32 49.7201 11.51 49.7201 11.67 49.8101L13.29 50.7801C13.52 50.9201 13.6 51.2201 13.46 51.4601C13.37 51.6201 13.2 51.7001 13.04 51.7001Z" fill="#FF3C00"/>
<path d="M13.04 54.7099C12.95 54.7099 12.87 54.6899 12.79 54.6399L11.42 53.8199L10.05 54.6399C9.89 54.7299 9.7 54.7299 9.54 54.6399L8.17 53.8199L6.8 54.6399C6.64 54.7299 6.45 54.7299 6.29 54.6399L4.92001 53.8199L3.54 54.6399C3.31 54.7799 3.00001 54.71 2.86001 54.47C2.72001 54.24 2.8 53.9299 3.03 53.7999L4.66 52.83C4.82 52.74 5.01001 52.74 5.17001 52.83L6.54 53.65L7.91 52.83C8.07 52.74 8.26 52.74 8.42 52.83L9.79 53.65L11.16 52.83C11.32 52.74 11.51 52.74 11.67 52.83L13.29 53.7999C13.52 53.9399 13.6 54.2399 13.46 54.4799C13.37 54.6199 13.2 54.7099 13.04 54.7099Z" fill="#FF3C00"/>
<path d="M3.28998 57.72C3.11998 57.72 2.95998 57.6299 2.86998 57.4799C2.72998 57.2499 2.80998 56.9399 3.03998 56.7999L4.66998 55.83C4.82998 55.74 5.01998 55.74 5.17998 55.83L6.54998 56.65L7.91998 55.83C8.07998 55.74 8.26998 55.74 8.42998 55.83L9.79998 56.65L11.17 55.83C11.33 55.74 11.52 55.74 11.68 55.83L13.3 56.7999C13.53 56.9399 13.61 57.2399 13.47 57.4799C13.33 57.7099 13.03 57.79 12.79 57.65L11.42 56.83L10.05 57.65C9.88998 57.74 9.69998 57.74 9.53998 57.65L8.16998 56.83L6.79998 57.65C6.63998 57.74 6.44998 57.74 6.28998 57.65L4.91998 56.83L3.53998 57.65C3.46998 57.69 3.37998 57.72 3.28998 57.72Z" fill="#FF3C00"/>
<path d="M3.28998 60.72C3.11998 60.72 2.95998 60.6299 2.86998 60.4799C2.72998 60.2499 2.80998 59.9399 3.03998 59.7999L4.66998 58.83C4.82998 58.74 5.01998 58.74 5.17998 58.83L6.54998 59.65L7.91998 58.83C8.07998 58.74 8.26998 58.74 8.42998 58.83L9.79998 59.65L11.17 58.83C11.33 58.74 11.52 58.74 11.68 58.83L13.3 59.7999C13.53 59.9399 13.61 60.2399 13.47 60.4799C13.33 60.7099 13.03 60.79 12.79 60.65L11.42 59.83L10.05 60.65C9.88998 60.74 9.69998 60.74 9.53998 60.65L8.16998 59.83L6.79998 60.65C6.63998 60.74 6.44998 60.74 6.28998 60.65L4.91998 59.83L3.53998 60.65C3.46998 60.7 3.37998 60.72 3.28998 60.72Z" fill="#FF3C00"/>
<path d="M18.57 64C18.3 64 18.08 63.78 18.08 63.51V61.55C18.08 60.97 17.67 60.5 17.17 60.5C16.67 60.5 16.26 60.97 16.26 61.55V63.51C16.26 63.78 16.04 64 15.77 64C15.5 64 15.28 63.78 15.28 63.51V61.55C15.28 60.43 16.13 59.52 17.17 59.52C18.21 59.52 19.06 60.43 19.06 61.55V63.51C19.06 63.78 18.84 64 18.57 64Z" fill="#FF3C00"/>
<path d="M24.46 64C24.19 64 23.97 63.78 23.97 63.51V61.55C23.97 60.97 23.56 60.5 23.06 60.5C22.56 60.5 22.15 60.97 22.15 61.55V63.51C22.15 63.78 21.93 64 21.66 64C21.39 64 21.17 63.78 21.17 63.51V61.55C21.17 60.43 22.02 59.52 23.06 59.52C24.1 59.52 24.95 60.43 24.95 61.55V63.51C24.96 63.78 24.74 64 24.46 64Z" fill="#FF3C00"/>
<path d="M30.36 64C30.09 64 29.87 63.78 29.87 63.51V61.55C29.87 60.97 29.46 60.5 28.96 60.5C28.46 60.5 28.05 60.97 28.05 61.55V63.51C28.05 63.78 27.83 64 27.56 64C27.29 64 27.07 63.78 27.07 63.51V61.55C27.07 60.43 27.92 59.52 28.96 59.52C30 59.52 30.85 60.43 30.85 61.55V63.51C30.85 63.78 30.63 64 30.36 64Z" fill="#FF3C00"/>
<path d="M36.26 64C35.99 64 35.77 63.78 35.77 63.51V61.55C35.77 60.97 35.36 60.5 34.86 60.5C34.36 60.5 33.95 60.97 33.95 61.55V63.51C33.95 63.78 33.73 64 33.46 64C33.19 64 32.97 63.78 32.97 63.51V61.55C32.97 60.43 33.82 59.52 34.86 59.52C35.9 59.52 36.75 60.43 36.75 61.55V63.51C36.75 63.78 36.53 64 36.26 64Z" fill="#FF3C00"/>
<path d="M42.16 64C41.89 64 41.67 63.78 41.67 63.51V61.55C41.67 60.97 41.26 60.5 40.76 60.5C40.26 60.5 39.85 60.97 39.85 61.55V63.51C39.85 63.78 39.63 64 39.36 64C39.09 64 38.87 63.78 38.87 63.51V61.55C38.87 60.43 39.72 59.52 40.76 59.52C41.8 59.52 42.65 60.43 42.65 61.55V63.51C42.65 63.78 42.43 64 42.16 64Z" fill="#FF3C00"/>
<path d="M48.05 64C47.78 64 47.56 63.78 47.56 63.51V61.55C47.56 60.97 47.15 60.5 46.65 60.5C46.15 60.5 45.74 60.97 45.74 61.55V63.51C45.74 63.78 45.52 64 45.25 64C44.98 64 44.76 63.78 44.76 63.51V61.55C44.76 60.43 45.61 59.52 46.65 59.52C47.69 59.52 48.54 60.43 48.54 61.55V63.51C48.55 63.78 48.33 64 48.05 64Z" fill="#FF3C00"/>
<path d="M21.04 58.8101C20.77 58.8101 20.55 58.59 20.55 58.32V56.2201C20.55 55.7101 20.15 55.2901 19.66 55.2901C19.17 55.2901 18.77 55.7101 18.77 56.2201V58.32C18.77 58.59 18.55 58.8101 18.28 58.8101C18.01 58.8101 17.79 58.59 17.79 58.32V56.2201C17.79 55.1601 18.63 54.3 19.67 54.3C20.71 54.3 21.55 55.1601 21.55 56.2201V58.32C21.53 58.59 21.31 58.8101 21.04 58.8101Z" fill="#FF3C00"/>
<path d="M26.88 58.8101C26.61 58.8101 26.39 58.59 26.39 58.32V56.2201C26.39 55.7101 25.99 55.2901 25.5 55.2901C25.01 55.2901 24.61 55.7101 24.61 56.2201V58.32C24.61 58.59 24.39 58.8101 24.12 58.8101C23.85 58.8101 23.63 58.59 23.63 58.32V56.2201C23.63 55.1601 24.47 54.3 25.51 54.3C26.55 54.3 27.39 55.1601 27.39 56.2201V58.32C27.37 58.59 27.15 58.8101 26.88 58.8101Z" fill="#FF3C00"/>
<path d="M32.72 58.8101C32.45 58.8101 32.23 58.59 32.23 58.32V56.2201C32.23 55.7101 31.83 55.2901 31.34 55.2901C30.85 55.2901 30.45 55.7101 30.45 56.2201V58.32C30.45 58.59 30.23 58.8101 29.96 58.8101C29.69 58.8101 29.47 58.59 29.47 58.32V56.2201C29.47 55.1601 30.31 54.3 31.35 54.3C32.39 54.3 33.23 55.1601 33.23 56.2201V58.32C33.21 58.59 32.99 58.8101 32.72 58.8101Z" fill="#FF3C00"/>
<path d="M38.56 58.8101C38.29 58.8101 38.07 58.59 38.07 58.32V56.2201C38.07 55.7101 37.67 55.2901 37.18 55.2901C36.69 55.2901 36.29 55.7101 36.29 56.2201V58.32C36.29 58.59 36.07 58.8101 35.8 58.8101C35.53 58.8101 35.31 58.59 35.31 58.32V56.2201C35.31 55.1601 36.15 54.3 37.19 54.3C38.23 54.3 39.07 55.1601 39.07 56.2201V58.32C39.05 58.59 38.83 58.8101 38.56 58.8101Z" fill="#FF3C00"/>
<path d="M44.4 58.8101C44.13 58.8101 43.91 58.59 43.91 58.32V56.2201C43.91 55.7101 43.51 55.2901 43.02 55.2901C42.53 55.2901 42.13 55.7101 42.13 56.2201V58.32C42.13 58.59 41.91 58.8101 41.64 58.8101C41.37 58.8101 41.15 58.59 41.15 58.32V56.2201C41.15 55.1601 41.99 54.3 43.03 54.3C44.07 54.3 44.91 55.1601 44.91 56.2201V58.32C44.89 58.59 44.67 58.8101 44.4 58.8101Z" fill="#FF3C00"/>
</svg>
