<svg width="26" height="30" viewBox="0 0 26 30" fill="none" xmlns="http://www.w3.org/2000/svg">
<path d="M25.418 11.829C25.516 11.706 25.535 11.537 25.467 11.395C25.399 11.253 25.254 11.162 25.097 11.162H24.854V10.254C24.854 10.068 24.728 9.917 24.558 9.866V8.406L25.34 7.833C25.483 7.728 25.543 7.543 25.487 7.373C25.432 7.204 25.274 7.09 25.097 7.09H24.854V6.184C24.854 5.957 24.669 5.773 24.443 5.773H24.21C24.21 5.768 24.213 5.765 24.213 5.76C24.213 4.541 23.546 3.522 22.659 3.269C22.619 3.154 22.55 3.053 22.442 2.998V2.648C22.558 2.577 22.639 2.454 22.639 2.308C22.639 2.136 22.531 1.991 22.38 1.932V1.644C22.495 1.589 22.575 1.474 22.575 1.338C22.575 1.197 22.49 1.077 22.369 1.024L22.233 0.125L22.097 1.024C21.976 1.077 21.891 1.197 21.891 1.338C21.891 1.474 21.972 1.589 22.086 1.644V1.932C21.935 1.991 21.827 2.136 21.827 2.308C21.827 2.454 21.908 2.576 22.024 2.648V2.736V2.998C21.916 3.053 21.847 3.154 21.807 3.269C20.92 3.521 20.253 4.54 20.253 5.76C20.253 5.765 20.256 5.768 20.256 5.773H20.023C19.796 5.773 19.612 5.957 19.612 6.184V7.092H19.49C19.31 7.092 19.152 7.208 19.098 7.379C19.045 7.55 19.108 7.736 19.255 7.839L20.074 8.412V9.843H20.025C19.798 9.843 19.614 10.027 19.614 10.254V11.162H19.492C19.334 11.162 19.19 11.252 19.122 11.395C19.054 11.537 19.073 11.706 19.171 11.829L20.075 12.961V18.789H20.026C19.799 18.789 19.615 18.974 19.615 19.2V29.374C19.615 29.601 19.8 29.785 20.026 29.785H24.567C24.794 29.785 24.978 29.6 24.978 29.374V19.2C24.978 18.973 24.793 18.789 24.567 18.789H24.518V12.961L25.418 11.829ZM21.075 5.76C21.075 4.821 21.605 4.028 22.232 4.028C22.859 4.028 23.389 4.821 23.389 5.76C23.389 5.765 23.392 5.768 23.392 5.773H21.073C21.073 5.769 21.075 5.765 21.075 5.76ZM20.433 6.595H24.031V7.092H20.433V6.595ZM20.889 8.175C20.888 8.164 20.884 8.155 20.883 8.144C20.871 8.059 20.838 7.982 20.782 7.921C20.78 7.92 20.78 7.916 20.778 7.914H23.85C23.848 7.916 23.848 7.92 23.846 7.922C23.789 7.984 23.755 8.063 23.744 8.151C23.743 8.161 23.739 8.169 23.738 8.179C23.738 8.186 23.734 8.192 23.734 8.199V9.843H20.893V8.199C20.893 8.191 20.889 8.184 20.889 8.175ZM20.433 10.665H24.031V11.162H20.433V10.665ZM24.151 28.962H20.433V19.611H20.482H24.102H24.151V28.962ZM20.893 18.789V12.818C20.893 12.798 20.884 12.781 20.882 12.762C20.878 12.736 20.875 12.711 20.866 12.685C20.856 12.656 20.841 12.632 20.826 12.606C20.817 12.591 20.814 12.575 20.803 12.561L20.341 11.983H24.242L23.78 12.561C23.769 12.575 23.766 12.591 23.757 12.606C23.741 12.631 23.727 12.656 23.717 12.684C23.708 12.71 23.705 12.735 23.701 12.761C23.698 12.78 23.69 12.797 23.69 12.817V18.788L20.893 18.789Z" fill="#FF3C00"/>
<path d="M18.738 26.343V20.172V17.682V13.963C18.738 13.757 18.584 13.582 18.38 13.556L9.67699 12.411C9.66499 12.409 9.65299 12.412 9.64099 12.411C9.63499 12.411 9.62999 12.407 9.62399 12.407C9.61799 12.407 9.61299 12.41 9.60699 12.411C9.59499 12.412 9.58299 12.409 9.57099 12.411L0.850988 13.556C0.646988 13.583 0.493988 13.757 0.493988 13.963V17.682V20.249V28.131C0.493988 28.333 0.640988 28.505 0.839988 28.537L9.55999 29.924C9.58199 29.927 9.60299 29.929 9.62499 29.929C9.64699 29.929 9.66799 29.927 9.68999 29.923L18.393 28.536C18.593 28.505 18.74 28.332 18.74 28.131V26.506C18.749 26.463 18.756 26.419 18.75 26.373C18.747 26.362 18.74 26.353 18.738 26.343ZM1.31499 18.093H17.916V19.774L9.63299 20.029L1.31499 19.846V18.093ZM17.916 24.11L10.035 24.989V20.838L17.916 20.595V24.11ZM12.112 26.782V25.584L14.815 25.282V26.446L12.112 26.782ZM6.98799 26.765L7.04299 25.649L9.21299 25.84V27.036L6.98799 26.765ZM10.034 25.816L11.29 25.676V26.884L10.034 27.04V25.816ZM9.21299 20.841V25.015L1.31499 24.32V20.669L9.21299 20.841ZM1.31499 25.145L2.87699 25.283L2.82899 26.258L1.31399 26.073V25.145H1.31499ZM3.69599 25.355L6.22399 25.577L6.17099 26.665L3.64699 26.357L3.69599 25.355ZM7.53099 27.66L7.47699 28.76L4.50999 28.288L4.55799 27.297L7.53099 27.66ZM8.29599 28.842L8.34899 27.76L9.21299 27.865V29.035L7.86299 28.82L8.29599 28.842ZM10.034 27.867L13.425 27.446V28.463C13.425 28.474 13.43 28.483 13.431 28.493L10.034 29.034V27.867ZM14.247 27.344L16.258 27.095V28.044L14.247 28.364V27.344ZM15.638 26.345V25.191L17.916 24.937V26.063L15.638 26.345ZM17.916 17.271H10.035V13.287L17.916 14.324V17.271ZM9.21299 13.286V17.27H1.31499V14.323L9.21299 13.286ZM1.31499 26.901L3.74199 27.197L3.69499 28.157L1.31499 27.779V26.901ZM17.081 27.912V26.992L17.916 26.888V27.778L17.081 27.912Z" fill="#FF3C00"/>
<path d="M17.519 18.587H14.733V19.276H17.519V18.587Z" fill="#FF3C00"/>
<path d="M14.159 18.587H13.283V19.276H14.159V18.587Z" fill="#FF3C00"/>
<path d="M12.71 18.587H9.92398V19.276H12.71V18.587Z" fill="#FF3C00"/>
<path d="M9.351 18.587H6.565V19.276H9.351V18.587Z" fill="#FF3C00"/>
<path d="M5.992 18.587H5.116V19.276H5.992V18.587Z" fill="#FF3C00"/>
<path d="M4.54299 18.587H1.75699V19.276H4.54299V18.587Z" fill="#FF3C00"/>
<path d="M10.536 9.39197C11.862 9.39197 13.185 8.84997 14.143 7.78497C14.146 7.78197 14.148 7.77997 14.151 7.77697L14.155 7.77297L14.158 7.76997C14.161 7.76597 14.164 7.76297 14.167 7.75897L14.169 7.75697C14.182 7.74097 14.186 7.72297 14.196 7.70597C14.212 7.67997 14.229 7.65497 14.239 7.62597C14.247 7.60097 14.248 7.57597 14.252 7.54997C14.256 7.52397 14.261 7.49897 14.26 7.47197C14.258 7.43797 14.247 7.40597 14.237 7.37297C14.232 7.35797 14.233 7.34197 14.226 7.32597C14.225 7.32397 14.223 7.32197 14.222 7.31997C14.205 7.28397 14.179 7.25397 14.152 7.22397C14.143 7.21397 14.136 7.20097 14.126 7.19197C14.122 7.18897 14.121 7.18397 14.117 7.18097C14.09 7.15897 14.059 7.14797 14.03 7.13297C14.016 7.12597 14.004 7.11597 13.99 7.11097C13.955 7.09897 13.92 7.09597 13.884 7.09297C13.867 7.09197 13.85 7.08697 13.833 7.08797C13.796 7.08997 13.762 7.10097 13.727 7.11297C13.712 7.11797 13.697 7.11697 13.683 7.12297C12.242 7.77997 10.542 7.52597 9.35698 6.47397C7.70298 5.00697 7.54998 2.46697 9.01698 0.81297C9.02898 0.79997 9.03298 0.78297 9.04298 0.76797C9.06298 0.73897 9.08398 0.71097 9.09498 0.67797C9.10398 0.65197 9.10398 0.62597 9.10798 0.59897C9.11198 0.57297 9.11898 0.54897 9.11798 0.52297C9.11598 0.48697 9.10498 0.45297 9.09398 0.41897C9.08898 0.40297 9.08998 0.38597 9.08298 0.37097L9.08098 0.36797C9.07098 0.34497 9.05098 0.32697 9.03698 0.30697C9.01998 0.28297 9.00498 0.25597 8.98398 0.23697L8.98198 0.23397C8.96998 0.22297 8.95398 0.21897 8.93998 0.20997C8.90998 0.18897 8.88098 0.16797 8.84698 0.15597C8.82398 0.14797 8.79898 0.14797 8.77498 0.14397C8.74698 0.13897 8.71998 0.13197 8.69098 0.13297C8.65898 0.13497 8.62898 0.14597 8.59798 0.15497C8.57798 0.16097 8.55798 0.15997 8.53898 0.16897C8.53698 0.16997 8.53498 0.17097 8.53498 0.17097C8.53298 0.17197 8.53098 0.17397 8.52798 0.17497C7.91798 0.45497 7.37998 0.85297 6.93098 1.35897C5.15898 3.35097 5.34298 6.41097 7.33698 8.17897C8.25298 8.99197 9.39498 9.39197 10.536 9.39197ZM7.39398 2.10897C6.88298 3.84997 7.36198 5.80797 8.80698 7.08997C9.68998 7.87297 10.809 8.28297 11.945 8.29997C10.598 8.80297 9.02998 8.58197 7.88098 7.56397C6.29198 6.15397 6.10598 3.76197 7.39398 2.10897Z" fill="#FF3C00"/>
<path d="M11.649 4.103L12.128 5.349L12.826 4.211L14.159 4.14L13.292 3.125L13.637 1.835L12.403 2.346L11.283 1.62L11.388 2.951L10.351 3.792L11.649 4.103Z" fill="#FF3C00"/>
</svg>
