<svg width="186" height="237" viewBox="0 0 186 237" fill="none" xmlns="http://www.w3.org/2000/svg">
<path d="M142.4 0.599998C141 0.999998 111.4 8.1 76.7 16.5C35.3 26.6 12.6 32.3 10.8 33.1C7.2 34.8 4 38 2.2 41.8L0.699997 44.9V133.8V222.7L2 225.4C4 229.6 6.7 232.2 10.8 234.3L14.4 236.1H92.8H171.2L174.4 234.6C178.4 232.7 181.8 229.4 183.6 225.6L185 222.7L185.1 134.8C185.2 37.1 185.4 44.3 182 39.1C178.7 34.1 173.5 31.4 166.3 31L161.9 30.7L161.8 20.4C161.7 10.3 161.7 10.1 160.4 7.7C157.1 1.3 150.5 -1.3 142.4 0.599998ZM170.5 38.8C173.4 39.8 175.5 41.6 176.9 44.2L178.2 46.5V133.5C178.2 205.4 178.1 220.8 177.6 222.1C176.6 224.6 174.4 226.8 171.8 228L169.4 229.1H92.9H16.4L14 228C11.4 226.8 9.2 224.6 8.2 222.1C7.7 220.8 7.59999 205.5 7.59999 133.5V46.5L8.9 44.2C10.3 41.6 12.4 39.8 15.1 38.8C17.9 37.8 167.7 37.7 170.5 38.8Z" fill="white"/>
<path d="M81.2 52.8C69.6 55.3 59.9 60.5 51.4 69C39.5 80.9 33.8 95.7 34.4 112.6C35.4 139.9 54.4 162 81.7 167.9C86.9 169 98.9 169 104.1 167.9C115.8 165.4 125.1 160.5 133.4 152.5C144.6 141.8 150.7 128.2 151.3 112.6C151.9 95.7 146.2 80.9 134.3 69C125.8 60.5 116.1 55.2 104.3 52.8C98 51.5 87.4 51.5 81.2 52.8ZM97.4 59.9C101.9 61.9 106.6 67.9 109.8 75.1C111.7 79.5 111.8 80.4 110.4 80.4C109.8 80.4 105.7 80.6 101.3 80.9C92.8 81.5 75.5 80.8 74.6 79.9C74.1 79.4 76.6 73.1 78.9 69.3C81.3 65.3 84.9 61.5 87.7 60.2C90.8 58.7 94.6 58.6 97.4 59.9ZM75.3 62.1C75.3 62.2 74.8 63.1 74.2 63.9C72.7 65.9 69.6 72.2 68.2 76C67.6 77.7 66.9 79 66.6 79C65.5 79 56 76.6 55.3 76.1C53.7 75.1 64.6 66.5 71.6 63.3C74.6 61.9 75.3 61.7 75.3 62.1ZM114.1 63.2C118.5 65.2 124.5 69.3 128.2 72.7C130.7 75.1 131.2 75.7 130.6 76.1C129.9 76.6 120.4 79 119.3 79C119 79 118.3 77.7 117.7 76C116.4 72.5 113.5 66.6 111.8 64.1C109.9 61.3 109.9 61.3 114.1 63.2ZM55.2 83.5C57.4 84.1 60.5 84.9 62.1 85.2C64.9 85.8 64.9 85.8 64.7 87.2C63.9 92.6 62.9 100.6 62.7 103.3L62.4 106.5H51.8H41.3L41.6 103.8C42.4 97.6 44.9 90 47.9 84.7C49.1 82.7 49.9 81.8 50.3 82C50.8 82.3 53 82.9 55.2 83.5ZM137.7 84.8C140.8 90.3 143.3 97.7 144.1 103.9L144.4 106.6H134H123.5L123.2 103.4C123 100.7 122 92.7 121.2 87.3L121 85.8L124.9 85C127 84.5 130.3 83.7 132.2 83C134.1 82.4 135.8 81.9 135.9 81.9C135.9 81.9 136.8 83.2 137.7 84.8ZM92.9 87.8C99.6 87.8 107 87.6 109.4 87.4L113.7 87L114.3 89.5C115 92.5 116.2 102.3 116.2 104.7V106.5H92.8H69.4L69.7 102.3C70 97.9 70.7 93.5 71.5 89.4L72 86.9L76.3 87.3C78.8 87.6 86.2 87.8 92.9 87.8ZM62.6 117C63.2 123.2 63.9 128.9 64.5 131.8L65.1 134.8L62.4 135.3C60.9 135.6 57.5 136.5 54.7 137.3C48.8 139 49.6 139.4 46.3 132.6C44.2 128.1 42.2 121.6 41.6 116.6L41.3 113.9H51.8H62.3L62.6 117ZM116.1 118.2C115.8 123 114.5 131 113.9 132.7C113.5 133.6 113.3 133.7 110.9 133.3C105.5 132.5 88.2 132.3 80.3 132.9C76 133.2 72.3 133.4 72.2 133.2C71.7 132.8 70.2 122.9 69.8 118.2L69.5 113.8H93H116.5L116.1 118.2ZM144.1 116.5C143.5 121.5 141.6 127.9 139.4 132.5C136.1 139.3 136.8 138.9 131 137.2C128.2 136.4 124.8 135.5 123.3 135.2L120.6 134.7L121.2 131.7C121.8 128.8 122.5 123.2 123.1 116.9L123.4 113.7H134H144.5L144.1 116.5ZM107.3 140C109.3 140.2 111.2 140.5 111.3 140.7C111.7 141.1 109.3 147 107.3 150.5C104.9 154.6 100.8 158.9 98.1 160.3C94.8 162 92.9 162.2 89.7 161.3C84.6 159.8 78.3 152.2 75.2 143.8C74.6 142.3 74.3 140.9 74.5 140.8C75.4 139.7 99.9 139.2 107.3 140ZM68.8 146.2C69.8 148.8 71.7 152.6 72.9 154.6C74.2 156.6 75.1 158.4 75 158.5C74.7 158.8 66.8 154.8 63.9 152.8C60.9 150.8 54.8 145.4 54.8 144.7C54.8 144.3 60.9 142.6 66.7 141.4C66.8 141.5 67.7 143.6 68.8 146.2ZM126.2 143.1C128.7 143.7 130.8 144.3 131 144.5C131.4 144.9 125.4 150.5 122 152.8C119 154.8 111.1 158.8 110.8 158.5C110.7 158.4 111.6 156.6 112.8 154.6C114.1 152.6 115.9 148.8 116.9 146.2C119.1 140.8 118.1 141.1 126.2 143.1Z" fill="white"/>
<path d="M104.9 184.3C100.6 185.8 98.6 188.4 98.6 192.5C98.6 196.9 100.5 198.8 107.3 201.6C110.9 203.1 112.1 204.5 111.6 206.4C110.9 209 107 209.7 102 208.2L99.2 207.3L98.6 209.9C97.9 212.8 98 212.9 101 213.8C103.1 214.4 109.3 214.4 111.5 213.8C114.1 213.1 116.3 211.4 117.6 209.3C118.5 207.8 118.6 206.9 118.5 204.7C118.3 200.7 116.9 199.2 110.6 196.1C105.8 193.8 105.5 193.5 105.4 192C105.2 189.7 106.8 188.8 110.9 189.1C112.7 189.2 114.6 189.5 115.1 189.7C116 189.9 116.2 189.7 116.7 187.6C117.1 186.1 117.2 185 116.9 184.7C116.3 184.1 111.9 183.3 109.4 183.3C108.3 183.4 106.3 183.8 104.9 184.3Z" fill="white"/>
<path d="M132.5 184.2C128.2 185.8 126.2 188.3 126.2 192.4C126.2 196.6 128.2 198.8 134.9 201.6C138.5 203.1 139.8 204.6 139.3 206.4C138.6 208.9 134.2 209.7 129.6 208.1C127.8 207.5 127 207.4 126.9 207.8C126.6 208.8 125.7 212.1 125.7 212.4C125.7 213.7 135.3 214.8 138.8 213.8C141.1 213.2 143.6 211.6 144.9 209.8C146 208.2 146.5 204.4 145.8 202.2C145 199.8 143.5 198.5 138 195.9C133.5 193.7 133.1 193.4 133 192C132.8 189.7 134.4 188.8 138.5 189.1C140.3 189.2 142.2 189.5 142.7 189.7C143.6 190 143.7 189.7 144.4 187.4L145.1 184.8L143.6 184.3C140.8 183.3 135.3 183.3 132.5 184.2Z" fill="white"/>
<path d="M40.4 184.2C39.6 184.4 39.5 185.5 39.5 199.4V214.4L42.7 214.3L45.9 214.2L46 208.8L46.1 203.5H48.6C55.9 203.5 60.7 199.5 60.8 193.4C60.8 190.5 60.2 188.9 58.3 186.9C56.2 184.7 53.2 183.9 46.6 184C43.7 183.9 40.8 184 40.4 184.2ZM51.7 189.3C53.6 190.1 54.3 191.3 54.3 193.4C54.3 196.4 52.2 198.2 48.3 198.2H46.2V193.8C46.2 191.3 46.3 189.2 46.5 189C47.1 188.4 50 188.5 51.7 189.3Z" fill="white"/>
<path d="M71.5 189.9C67.3 203.4 64.3 213.3 64.3 213.8C64.3 214.1 65.6 214.3 67.6 214.3H70.9L71.7 211.5C73.3 205.8 72.7 206.4 77.6 206.3C80.9 206.2 82 206.3 82.2 206.8C82.3 207.1 82.9 209 83.4 210.9L84.4 214.3H88C91.2 214.3 91.6 214.2 91.3 213.4C91.2 213 89.1 206.1 86.6 198.2L82.1 183.8H77.7H73.3L71.5 189.9ZM79.1 194.6C79.9 197.5 80.7 200.2 80.8 200.6C81 201.4 80.7 201.5 77.7 201.5C74.4 201.5 74.3 201.5 74.6 200.4C74.7 199.8 75.5 197.1 76.2 194.3C76.9 191.5 77.6 189.3 77.6 189.3C77.6 189.3 78.3 191.7 79.1 194.6Z" fill="white"/>
</svg>
