<svg width="73" height="123" viewBox="0 0 73 123" fill="none" xmlns="http://www.w3.org/2000/svg">
<path fill-rule="evenodd" clip-rule="evenodd" d="M59.07 0C62.79 0 66.14 1.52 68.59 3.95C71.03 6.39 72.54 9.76 72.54 13.47C72.54 45.46 72.55 77.42 72.55 109.4C72.55 113.12 71.03 116.47 68.6 118.92C66.16 121.36 62.79 122.87 59.08 122.87H13.47C9.75 122.87 6.4 121.35 3.95 118.92C1.52 116.49 0 113.12 0 109.41V13.47C0 9.75 1.52 6.4 3.95 3.95C6.48 1.43 9.9 0 13.47 0H59.07ZM68.67 16.94H3.88V103.98H68.68C68.69 74.96 68.67 45.97 68.67 16.94ZM36.28 108.21C39.32 108.21 41.8 110.69 41.8 113.73C41.8 116.77 39.32 119.26 36.28 119.26C33.24 119.26 30.76 116.78 30.76 113.73C30.75 110.69 33.22 108.21 36.28 108.21Z" fill="#FF3C00"/>
<path d="M9.94 28.41H19.95C22.13 28.41 23.76 28.93 24.85 29.96C25.93 31 26.48 32.47 26.48 34.4C26.48 36.36 25.89 37.91 24.7 39.01C23.52 40.12 21.71 40.67 19.28 40.67H15.98V47.87H9.94V28.41ZM15.98 36.73H17.46C18.63 36.73 19.45 36.53 19.92 36.12C20.39 35.72 20.63 35.2 20.63 34.57C20.63 33.95 20.43 33.44 20.01 33.01C19.6 32.59 18.83 32.37 17.7 32.37H15.98V36.73ZM38.36 44.67H31.54L30.57 47.88H24.43L31.76 28.41H38.35L45.64 47.88H39.34L38.36 44.67ZM37.08 40.45L34.96 33.45L32.82 40.45H37.08ZM42.35 28.41H49.03L52.97 34.97L56.89 28.41H63.53L55.97 39.73V47.88H49.93V39.73L42.35 28.41Z" fill="#FF3C00"/>
<path fill-rule="evenodd" clip-rule="evenodd" d="M36.9 66.53H37.1C38.64 66.53 39.9 67.79 39.9 69.33V87.37H41.71V79.82C41.71 78.39 42.88 77.21 44.32 77.21H44.52C46.06 77.21 47.32 78.47 47.32 80.01V87.56L47.41 87.53H49.38V81.78C49.38 80.35 50.55 79.17 51.99 79.17H52.19C53.73 79.17 54.99 80.43 54.99 81.97V87.22L55.01 87.23L56.96 87.22V83.51C56.96 82.08 58.13 80.9 59.57 80.9H59.77C61.31 80.9 62.57 82.16 62.57 83.7V91.56C62.57 91.66 62.57 91.75 62.56 91.85L62.65 91.93C62.82 97 62.47 104.25 58.31 107.88C54.18 111.24 50.04 112.12 45.75 111.45C39.89 110.53 36.85 107.35 34.07 102.32L23.08 84.93C22.51 83.59 22.58 82.67 23.16 82.09C25.63 80.48 29.67 83.89 34.14 88.72L34.3 88.68V69.13C34.29 67.7 35.47 66.53 36.9 66.53ZM38.6 58.99C38.6 59.75 37.98 60.37 37.22 60.37C36.46 60.37 35.84 59.75 35.84 58.99L35.83 53.43C35.83 52.67 36.45 52.05 37.21 52.05C37.97 52.05 38.59 52.67 38.59 53.43L38.6 58.99ZM26.05 70.38C26.81 70.38 27.43 71 27.43 71.76C27.43 72.52 26.81 73.14 26.05 73.14H20.49C19.73 73.14 19.11 72.52 19.11 71.76C19.11 71 19.73 70.38 20.49 70.38H26.05ZM29.99 62.14C30.53 62.68 30.52 63.56 29.99 64.09C29.45 64.63 28.57 64.62 28.04 64.09L24.11 60.16C23.57 59.62 23.58 58.74 24.11 58.21C24.65 57.67 25.53 57.68 26.06 58.22L29.99 62.14ZM48.13 73.14C47.37 73.14 46.75 72.52 46.75 71.76C46.75 71 47.37 70.38 48.13 70.38H53.68C54.44 70.38 55.06 71 55.06 71.76C55.06 72.52 54.44 73.14 53.68 73.14H48.13ZM46.15 63.78C45.61 64.32 44.74 64.32 44.2 63.78C43.66 63.24 43.66 62.37 44.2 61.83L48.13 57.9C48.67 57.36 49.54 57.36 50.08 57.9C50.62 58.44 50.62 59.31 50.09 59.85L46.15 63.78Z" fill="#FF3C00"/>
</svg>
