<svg width="512" height="512" viewBox="0 0 512 512" fill="none" xmlns="http://www.w3.org/2000/svg">
<path d="M128 268.8H204.8C208.195 268.8 211.451 267.451 213.851 265.051C216.251 262.65 217.6 259.395 217.6 256C217.6 252.605 216.251 249.35 213.851 246.949C211.451 244.549 208.195 243.2 204.8 243.2H128C124.605 243.2 121.35 244.549 118.949 246.949C116.549 249.35 115.2 252.605 115.2 256C115.2 259.395 116.549 262.65 118.949 265.051C121.35 267.451 124.605 268.8 128 268.8Z" fill="#FF3C00"/>
<path d="M281.6 294.4H128C124.605 294.4 121.35 295.749 118.949 298.149C116.549 300.55 115.2 303.805 115.2 307.2C115.2 310.595 116.549 313.851 118.949 316.251C121.35 318.651 124.605 320 128 320H281.6C284.995 320 288.251 318.651 290.651 316.251C293.051 313.851 294.4 310.595 294.4 307.2C294.4 303.805 293.051 300.55 290.651 298.149C288.251 295.749 284.995 294.4 281.6 294.4Z" fill="#FF3C00"/>
<path d="M281.22 345.6H128C124.605 345.6 121.35 346.949 118.949 349.349C116.549 351.749 115.2 355.005 115.2 358.4C115.2 361.795 116.549 365.05 118.949 367.451C121.35 369.851 124.605 371.2 128 371.2H281.22C284.615 371.2 287.87 369.851 290.271 367.451C292.671 365.05 294.02 361.795 294.02 358.4C294.02 355.005 292.671 351.749 290.271 349.349C287.87 346.949 284.615 345.6 281.22 345.6Z" fill="#FF3C00"/>
<path d="M422.4 333.82V153.6L268.94 0H76.8C59.8261 0 43.5475 6.74284 31.5452 18.7452C19.5428 30.7475 12.8 47.0261 12.8 64V448C12.8 464.974 19.5428 481.252 31.5452 493.255C43.5475 505.257 59.8261 512 76.8 512H358.4C366.389 511.994 374.305 510.477 381.73 507.53C393.525 511.395 405.995 512.766 418.347 511.555C430.7 510.345 442.667 506.579 453.487 500.497C464.307 494.416 473.744 486.151 481.2 476.228C488.656 466.304 493.967 454.939 496.796 442.854C499.626 430.769 499.912 418.227 497.636 406.026C495.36 393.824 490.573 382.229 483.577 371.976C476.581 361.723 467.53 353.037 456.999 346.468C446.467 339.9 434.685 335.592 422.4 333.82ZM373.09 140.82H320C309.819 140.809 300.058 136.76 292.859 129.561C285.66 122.362 281.611 112.601 281.6 102.42V49.08L373.09 140.82ZM76.8 486.4C66.6189 486.389 56.8579 482.34 49.6588 475.141C42.4597 467.942 38.4106 458.181 38.4 448V64C38.4106 53.8189 42.4597 44.0579 49.6588 36.8588C56.8579 29.6597 66.6189 25.6106 76.8 25.6H256V102.4C256 119.374 262.743 135.653 274.745 147.655C286.748 159.657 303.026 166.4 320 166.4H396.8V333.82C380.269 336.195 364.733 343.149 351.949 353.895C339.165 364.641 329.644 378.751 324.462 394.627C319.28 410.503 318.645 427.513 322.628 443.731C326.611 459.95 335.053 474.73 347 486.4H76.8ZM409.6 486.4C396.942 486.4 384.568 482.646 374.044 475.614C363.519 468.582 355.316 458.586 350.472 446.892C345.628 435.197 344.36 422.329 346.83 409.914C349.299 397.499 355.395 386.096 364.345 377.145C373.296 368.195 384.699 362.099 397.114 359.63C409.529 357.16 422.397 358.428 434.092 363.272C445.786 368.116 455.782 376.319 462.814 386.844C469.846 397.368 473.6 409.742 473.6 422.4C473.581 439.368 466.833 455.636 454.834 467.634C442.836 479.633 426.568 486.381 409.6 486.4Z" fill="#FF3C00"/>
<path d="M418.65 387.75C418.46 387.56 418.24 387.43 418.04 387.26C417.84 387.09 417.59 386.88 417.35 386.7C416.504 386.032 415.577 385.474 414.59 385.04L414.5 384.98C413.454 384.567 412.358 384.294 411.24 384.17L410.41 384.09C409.324 384.006 408.232 384.059 407.16 384.25L406.97 384.31C405.96 384.523 404.979 384.859 404.05 385.31C403.79 385.44 403.55 385.56 403.3 385.71C402.308 386.252 401.393 386.925 400.58 387.71L374.98 413.31C372.637 415.722 371.338 418.959 371.363 422.321C371.387 425.684 372.734 428.901 375.111 431.279C377.489 433.656 380.706 435.003 384.069 435.027C387.431 435.052 390.668 433.753 393.08 431.41L396.83 427.66V448C396.83 451.395 398.179 454.651 400.579 457.051C402.98 459.451 406.235 460.8 409.63 460.8C413.025 460.8 416.281 459.451 418.681 457.051C421.081 454.651 422.43 451.395 422.43 448V427.7L426.18 431.45C428.592 433.793 431.829 435.092 435.191 435.067C438.554 435.043 441.771 433.696 444.149 431.319C446.526 428.941 447.873 425.724 447.897 422.361C447.922 418.999 446.623 415.762 444.28 413.35L418.65 387.75Z" fill="#FF3C00"/>
</svg>
