<svg width="28" height="20" viewBox="0 0 28 20" fill="none" xmlns="http://www.w3.org/2000/svg">
<path d="M25 19H3C1.895 19 1 18.105 1 17V3C1 1.895 1.895 1 3 1H25C26.105 1 27 1.895 27 3V17C27 18.105 26.105 19 25 19Z" stroke="#FF3C00" stroke-width="2" stroke-miterlimit="10"/>
<path d="M7.28701 10.338L6.67001 7.206C6.67001 7.206 6.39201 6.526 5.66701 6.526C4.94201 6.526 2.83301 6.526 2.83301 6.526C2.83301 6.526 6.44601 7.629 7.28701 10.338Z" fill="#FF3C00"/>
<path d="M10.782 13.4139H12.614L13.722 6.50995H11.868L10.782 13.4139Z" fill="#FF3C00"/>
<path d="M9.184 6.50995L7.508 11.4269C7.508 11.4269 7.412 11.0079 7.371 10.7479C6.416 8.60795 4.867 7.82395 4.867 7.82395L6.338 13.4139L8.356 13.4129L11.144 6.50995H9.184Z" fill="#FF3C00"/>
<path d="M16.321 8.48697C16.321 8.08697 16.639 7.78897 17.55 7.78897C18.143 7.78897 18.821 8.23497 18.821 8.23497L19.118 6.70997C19.118 6.70997 18.25 6.37097 17.401 6.37097C15.475 6.37097 14.48 7.32397 14.48 8.52997C14.48 10.711 17.02 10.413 17.02 11.534C17.02 11.725 16.872 12.169 15.814 12.169C14.754 12.169 14.055 11.766 14.055 11.766L13.738 13.229C13.738 13.229 14.416 13.63 15.729 13.63C17.041 13.63 18.863 12.614 18.863 11.153C18.863 9.39597 16.321 9.26997 16.321 8.48697Z" fill="#FF3C00"/>
<path d="M23.748 6.50995H21.821L18.814 13.4129H20.633L21.01 12.4279H23.303L23.5 13.4129H25.167L23.748 6.50995ZM21.518 11.1089L22.514 8.50095L23.037 11.1089H21.518Z" fill="#FF3C00"/>
</svg>
