<svg width="800" height="560" viewBox="0 0 800 560" fill="none" xmlns="http://www.w3.org/2000/svg">
<path d="M787.367 120.438C794.347 120.438 800 114.783 800 107.806V58.6516C800 26.4344 773.789 0.223442 741.57 0.223442H58.4297C26.2109 0.223442 0 26.4344 0 58.6516V501.347C0 533.566 26.2109 559.777 58.4297 559.777H741.569C773.788 559.777 799.998 533.564 799.998 501.347V148.791C799.998 141.814 794.345 136.159 787.367 136.159C780.389 136.159 774.736 141.816 774.736 148.791V439.062H25.2625V120.438H787.367ZM25.2625 58.6516C25.2625 40.3641 40.1406 25.4859 58.4297 25.4859H741.569C759.858 25.4859 774.736 40.3641 774.736 58.6516V95.175H25.2625V58.6516ZM774.738 464.325V501.345C774.738 519.634 759.859 534.513 741.57 534.513H58.4297C40.1406 534.513 25.2625 519.634 25.2625 501.345V464.325H774.738Z" fill="#FF3C00"/>
<path d="M387.492 173.339C385.092 170.494 381.561 168.852 377.837 168.852H323.95C319.331 168.852 315.217 171.35 313.013 175.161C312.917 175 312.836 174.83 312.731 174.669C310.394 171.12 306.431 168.984 302.181 168.984H245.148C239.948 168.984 235.281 172.17 233.386 177.012L195.539 273.719L178.761 193.236C178.72 193.041 178.675 192.847 178.625 192.655C175.756 181.55 167.327 168.106 143.463 167.105C143.288 167.098 143.111 167.095 142.934 167.095H59.5297C53.4469 167.095 48.2266 171.43 47.1125 177.411L46.3703 181.397C45.1406 187.997 49.2875 194.408 55.8125 195.989C71.675 199.834 86.4219 205.205 99.8281 211.906C99.4906 213.789 99.5734 215.761 100.134 217.678L148.328 382.403C149.903 387.787 154.842 391.487 160.452 391.487C160.456 391.487 160.461 391.487 160.467 391.487L217.45 391.422C222.492 391.416 227.048 388.413 229.041 383.78L307.953 200.191L277.844 376.867C277.219 380.536 278.242 384.294 280.642 387.137C283.042 389.98 286.573 391.62 290.294 391.62H344.092C350.248 391.62 355.506 387.183 356.544 381.116L390.289 183.611C390.916 179.941 389.894 176.184 387.492 173.339ZM142.655 192.359C152.269 192.811 153.327 195.758 154.094 198.691L159.172 223.052C147.052 211.248 132.892 200.931 117.009 192.359H142.655ZM209.106 366.169L169.909 366.212L135.45 248.438C154.292 266.273 168.67 286.019 174.853 300.183L180.252 319.698C181.702 324.938 186.344 328.664 191.775 328.945C197.2 329.227 202.206 326 204.189 320.933L253.769 194.247H283.002L209.106 366.169ZM333.437 366.358H305.262L334.611 194.114H362.866L333.437 366.358Z" fill="#FF3C00"/>
<path d="M733.133 375.405L689.738 178.959C688.459 173.172 683.33 169.053 677.405 169.053H635.831C628.616 169.053 606.656 169.053 596.089 192.937L544.073 310.691C542.753 284.908 525.583 264.803 491.687 249.336C484.692 245.95 472.267 239.927 469.102 236.383C470.648 234.916 475.775 231.967 486.922 231.967C486.986 231.967 487.052 231.966 487.116 231.966C502.995 231.736 514.238 235.333 522.227 238.517L526.809 240.619C530.378 242.256 534.5 242.139 537.973 240.306C541.445 238.473 543.864 235.131 544.527 231.262L551.83 188.475C552.848 182.498 549.478 176.639 543.795 174.516C532.745 170.387 514.636 165.47 491.114 165.47C430.511 165.47 387.903 197.414 387.5 243.114C387.03 282.916 428.408 302.094 442.031 308.409C460.278 316.808 462.3 320.331 462.52 320.944C462.52 320.944 462.537 321.023 462.533 321.277C462.506 323.997 454.287 328.036 442.989 328.036C422.991 328.036 413.108 325.294 397.348 318.737L390.67 315.67C387.105 314.033 382.975 314.148 379.505 315.977C376.031 317.809 373.609 321.15 372.948 325.02L365.386 369.278C364.408 375.003 367.458 380.656 372.78 382.981C388.381 389.798 413.855 394.331 437.68 394.53C437.716 394.53 437.75 394.53 437.786 394.53C468.214 394.53 494.259 387.364 513.103 373.808C514.75 372.623 516.312 371.373 517.837 370.097L516.133 373.955C514.406 377.861 514.77 382.377 517.102 385.953C519.434 389.533 523.414 391.689 527.684 391.689H584.264C589.519 391.689 594.225 388.434 596.081 383.52C596.147 383.345 600.827 370.959 604.23 362.022C610.128 362.028 618.216 362.038 626.573 362.047C636.536 362.056 646.886 362.069 654.397 362.075C656.356 370.903 658.673 381.581 658.708 381.736C659.967 387.545 665.108 391.688 671.052 391.688H721.005C721.012 391.688 721.027 391.688 721.036 391.688C728.014 391.688 733.667 386.034 733.667 379.056C733.667 377.786 733.481 376.562 733.133 375.405ZM437.834 369.266C420.119 369.112 403.483 366.302 392.083 363.033L395.153 345.059C409.853 350.63 422.358 353.298 442.989 353.298C469.18 353.298 487.603 340.236 487.794 321.598C488.072 303.319 471.303 294.073 452.628 285.475C424.866 272.606 412.57 259.636 412.762 243.377C413.036 212.383 445.256 190.734 491.114 190.734C505.073 190.734 516.694 192.837 525.077 195.062L522.237 211.703C513.128 208.85 501.569 206.492 486.828 206.706C457.109 206.741 443.533 221.997 443.472 236.208C443.272 253.975 460.673 262.394 480.816 272.142C480.905 272.184 480.994 272.227 481.081 272.267C514.806 287.622 519.011 302.802 518.905 314.3C518.572 348.192 487.508 369.252 437.834 369.266ZM681.222 366.427C679.678 359.373 677.719 350.5 676.788 346.553C675.442 340.85 670.352 336.822 664.492 336.822C660.337 336.822 642.942 336.802 626.6 336.786C612.108 336.769 598.439 336.753 595.547 336.753C590.347 336.753 585.681 339.937 583.786 344.778C582.459 348.167 578.419 358.816 575.537 366.427H547.075L619.197 203.153C621.844 197.167 625.011 194.317 635.833 194.317H667.258L705.275 366.427H681.222Z" fill="#FF3C00"/>
<path d="M668.044 306.261C665.881 296.397 655.617 249.266 655.617 249.266L651.966 232.233C650.786 226.725 646.103 222.667 640.484 222.28C634.856 221.902 629.669 225.272 627.744 230.564C626.092 235.112 623.583 241.597 622.083 245.47C621.589 246.748 621.111 247.986 620.72 249.203L620.67 249.183C620.5 249.62 603.669 293.148 599.267 304.345C597.739 308.233 598.233 312.625 600.584 316.08C602.942 319.531 606.85 321.598 611.027 321.598H655.706C659.531 321.598 663.15 319.866 665.548 316.884C667.947 313.905 668.864 309.997 668.044 306.261ZM629.503 296.334C631.678 290.73 634.047 284.619 636.236 278.967C637.506 284.8 638.836 290.906 640.02 296.334H629.503Z" fill="#FF3C00"/>
</svg>
